PathFileType	4	(X/Y/Z)	OpenSim_Sub10_CSBaseline_Magnet.trc
DataRate	CameraRate	NumFrames	NumMarkers	Units	OrigDataRate	OrigDataStartFrame	OrigNumFrames
100	100	16	8	m	100	6834	9111
Frame#	Time	torso_imu_offset_imu	pelvis_imu_offset_imu	tibia_r_imu_offset_imu	femur_r_imu_offset_imu	tibia_l_imu_offset_imu	femur_l_imu_offset_imu	toes_r_imu_offset_imu	toes_l_imu_offset_imu
				X1	Y1	Z1	X2	Y2	Z2	X3	Y3	Z3	X4	Y4	Z4	X5	Y5	Z5	X6	Y6	Z6	X7	Y7	Z7	X8		Y8	Z8	

6834	68.33000000	-0.95402918	-0.06786540	0.10294302	-0.65930082	0.06112907	-0.69831648	-0.68579087	-0.60139834	-0.17129828	-0.66958884	-0.49014713	0.05773892	-0.65529973	0.47493974	0.14627045	-0.70724879	-0.15236171	0.18035241	-0.62299856	-0.40084381	-0.44782449	-0.76005996	-0.09585216	-0.31772119
6835	68.34000000	-0.95621133	-0.06550583	0.11365117	-0.65700537	0.05968112	-0.69553686	-0.67749752	-0.60204314	-0.16821515	-0.66559728	-0.50057683	0.06500558	-0.68474325	0.43859644	0.14358910	-0.70891099	-0.15038126	0.17294779	-0.62498936	-0.41046775	-0.45633029	-0.74759948	-0.10510130	-0.34971294
6836	68.35000000	-0.95180534	-0.06575689	0.11121629	-0.65764573	0.06158378	-0.69287394	-0.67749240	-0.61227846	-0.18403141	-0.66259986	-0.50816673	0.06736490	-0.70580264	0.39531736	0.13520333	-0.70681607	-0.14568173	0.17435292	-0.63130067	-0.41480154	-0.45970996	-0.72917934	-0.11548942	-0.39162947
6837	68.36000000	-0.95248552	-0.06550865	0.11542146	-0.66160675	0.06170218	-0.68874502	-0.67523138	-0.61209210	-0.18615386	-0.65181510	-0.51017882	0.06965262	-0.72841408	0.36483675	0.13465946	-0.70743936	-0.13877306	0.18314013	-0.63260677	-0.42269648	-0.45718598	-0.71043173	-0.12658026	-0.41889902
6838	68.37000000	-0.95665336	-0.06365892	0.11093355	-0.65953488	0.06626218	-0.69141656	-0.67038403	-0.61835744	-0.17823417	-0.64635441	-0.51672251	0.07005159	-0.73922363	0.32710741	0.12554279	-0.71209711	-0.13056877	0.18187729	-0.63535945	-0.42254521	-0.45535075	-0.68489943	-0.14161568	-0.46458721
6839	68.38000000	-0.95598666	-0.06360322	0.11346990	-0.66163658	0.06977628	-0.68914953	-0.66194157	-0.62047228	-0.18703568	-0.64597051	-0.52049861	0.07214792	-0.76217667	0.29503402	0.12838690	-0.71209916	-0.12595714	0.18085776	-0.64105362	-0.42941507	-0.45754091	-0.65988271	-0.15703971	-0.49859521
6840	68.39000000	-0.95005193	-0.06133524	0.11327098	-0.65749845	0.06796192	-0.68851252	-0.65782604	-0.62729227	-0.18166310	-0.64154398	-0.52503863	0.07025869	-0.76755249	0.26885036	0.12575206	-0.71455530	-0.11478427	0.18901422	-0.64087305	-0.43717236	-0.45930679	-0.63427881	-0.17353338	-0.52291722
6841	68.40000000	-0.95219471	-0.06180030	0.11280399	-0.66223430	0.07254113	-0.68493878	-0.65333439	-0.63555077	-0.18215006	-0.63920946	-0.53546490	0.07563630	-0.77786054	0.23972925	0.10930788	-0.71273153	-0.10393721	0.18138776	-0.64749428	-0.43905200	-0.45917950	-0.60727615	-0.18190466	-0.54757649
6842	68.41000000	-0.94971588	-0.06611630	0.10839979	-0.66187514	0.07648892	-0.69175172	-0.64612896	-0.64115621	-0.18966676	-0.63527331	-0.53896989	0.07462193	-0.78099529	0.21263047	0.10571291	-0.71830830	-0.09308030	0.18027895	-0.65318075	-0.44595878	-0.45674991	-0.58213416	-0.19233619	-0.56964095
6843	68.42000000	-0.95025355	-0.06766785	0.10735698	-0.66274762	0.07842647	-0.68370772	-0.63631378	-0.64351304	-0.20177103	-0.63441380	-0.54113594	0.06829315	-0.78265381	0.20209795	0.11087766	-0.72180381	-0.08273073	0.18452723	-0.65492118	-0.45359581	-0.45306425	-0.56098318	-0.19633852	-0.58400423
6844	68.43000000	-0.95449065	-0.06592345	0.11362688	-0.66821216	0.07809574	-0.67788749	-0.63365130	-0.64969629	-0.19109561	-0.62433428	-0.54520309	0.06863212	-0.78261426	0.18676795	0.11061632	-0.71567468	-0.07896846	0.18696533	-0.65701852	-0.45545425	-0.45698718	-0.55150553	-0.20252043	-0.59123574
6845	68.44000000	-0.95628519	-0.07011699	0.11059410	-0.66209253	0.08104240	-0.68279006	-0.62094600	-0.65378953	-0.18876250	-0.62865905	-0.54715534	0.06587903	-0.78935977	0.18121681	0.10257017	-0.71795945	-0.07921286	0.19293553	-0.66152568	-0.45784068	-0.44971275	-0.53395781	-0.20444232	-0.60930727
6846	68.45000000	-0.95364117	-0.06789771	0.10431050	-0.66685756	0.08648885	-0.68017451	-0.61693134	-0.66047870	-0.20445219	-0.62446690	-0.55151715	0.06205732	-0.78804301	0.18154859	0.10787343	-0.71283038	-0.08171608	0.18917290	-0.66469349	-0.46221579	-0.44478864	-0.53010512	-0.21165946	-0.61165260
6847	68.46000000	-0.95245141	-0.06971143	0.10442094	-0.66434394	0.07996633	-0.67738478	-0.60744157	-0.66870606	-0.20484303	-0.62615791	-0.55541322	0.06440416	-0.78230507	0.18389037	0.11456286	-0.71146116	-0.08855282	0.19789351	-0.66108429	-0.46547628	-0.44564146	-0.52757532	-0.21994698	-0.60270902
6848	68.47000000	-0.95832712	-0.06818961	0.10301148	-0.66630163	0.08280351	-0.67053655	-0.59762156	-0.67489456	-0.20312706	-0.61983757	-0.55485769	0.05942442	-0.78900583	0.19162336	0.12303967	-0.71520356	-0.09699917	0.19335982	-0.67198587	-0.46422613	-0.43096505	-0.52512344	-0.22196076	-0.60080330
6849	68.48000000	-0.95165831	-0.07461000	0.11139343	-0.66236513	0.08688246	-0.67134444	-0.59241999	-0.68109720	-0.21210185	-0.61981711	-0.55330076	0.05496882	-0.77952949	0.20928121	0.12579761	-0.71248288	-0.10150235	0.19785977	-0.67277053	-0.47277287	-0.42956498	-0.52606738	-0.22652529	-0.59920797
